<?xml version="1.0" encoding="utf-8"?>
<!-- Скачано с сайта svg4.ru / Downloaded from svg4.ru -->
<!DOCTYPE svg PUBLIC "-//W3C//DTD SVG 1.1//EN" "http://www.w3.org/Graphics/SVG/1.1/DTD/svg11.dtd">
<svg fill="#000000" width="800px" height="800px" viewBox="0 0 1000 1000" version="1.1" xmlns="http://www.w3.org/2000/svg" xmlns:xlink="http://www.w3.org/1999/xlink"  enable-background="new 0 0 1000 1000" xml:space="preserve">

<g>
<g transform="translate(0.000000,511.000000) scale(0.100000,-0.100000)">
<path d="M2435.2,4191.5c-439-112.3-768.2-495.1-837.1-974.9c-74-515.5,188.8-1031,638-1242.8c160.8-76.6,191.4-81.7,428.7-79.1c219.5,0,275.6,10.2,403.2,68.9c168.4,76.6,403.2,288.4,495.1,446.6c234.8,400.7,216.9,967.2-40.8,1337.3C3272.3,4104.7,2818,4291,2435.2,4191.5z"/>
<path d="M7296.9,4148.1c-370-40.8-648.2-183.7-962.1-495.1c-204.2-206.7-247.5-268-362.4-500.2c-140.4-293.5-191.4-461.9-229.7-788.6c-33.2-262.9-35.7-426.2-5.1-444.1c10.2-7.6,94.4-7.6,183.8,0l163.3,15.3l5.1,234.8c20.4,737.6,433.9,1370.5,1023.4,1569.5c206.7,71.5,505.3,71.5,701.8,5.1c367.5-127.6,673.8-467,860.1-951.9c45.9-117.4,132.7-482.4,216.9-893.2c76.6-382.8,145.5-722.2,153.1-752.9c12.8-56.2,7.7-58.7-201.6-58.7c-188.8,0-224.6-7.7-280.7-56.2c-33.2-33.2-260.3-311.4-500.2-620.1c-239.9-308.8-446.6-564-456.8-569.1c-12.8-2.6-247.5,275.6-523.2,620.1l-500.2,625.3h-441.5h-441.5l-165.9-171L5365,743.6l352.2-1148.4c260.3-849.8,352.2-1184.2,352.2-1286.2c2.6-168.4-68.9-334.3-186.3-428.8l-81.7-63.8l71.5-439c91.9-566.6,91.9-556.3,140.4-546.1c33.2,5.1,99.5,216.9,280.7,900.9c132.7,490,242.5,895.8,247.6,898.3c20.4,22.9,91.9-28.1,91.9-66.4c-2.5-23-104.6-418.5-227.1-883c-125-461.9-224.6-844.8-219.5-849.8c15.3-15.3,2613.3-17.9,2628.6,0c7.7,7.7-89.3,408.3-216.9,888.1c-127.6,479.8-229.7,875.4-224.6,880.5c5.1,5.1,28.1,12.8,56.2,17.9c40.8,7.7,71.5-86.8,268-821.8c122.5-456.8,232.2-860.1,242.4-898.3l15.3-71.5h418.6h421.1l51,66.3c53.6,66.4,53.6,86.8,53.6,1832.4V491l-130.1,252.7c-140.4,273.1-199.1,344.5-291,344.5c-53.6,0-63.8,33.2-201.6,735c-168.4,839.6-275.6,1199.5-454.3,1493C8463.2,3915.9,7917,4214.5,7296.9,4148.1z M7656.7-1308.3c81.7-81.7,89.3-120,46-214.4c-84.2-186.3-354.7-120-354.7,84.2c0,91.9,43.4,155.7,127.6,186.3C7549.5-1224,7582.7-1234.2,7656.7-1308.3z M7666.9-2089.2c76.6-76.6,81.7-163.3,10.2-252.7c-107.2-135.3-329.2-58.7-329.2,117.4C7347.9-2048.3,7544.4-1964.1,7666.9-2089.2z"/>
<path d="M7289.2,3614.7c-352.2-89.3-666.1-403.2-783.5-783.5c-74-242.5-74-247.6,71.5-227.1c293.5,38.3,666.1,298.6,877.9,610c112.3,165.9,211.8,372.6,188.8,393C7618.4,3635.1,7386.2,3637.7,7289.2,3614.7z"/>
<path d="M7781.8,3446.3c-28.1-66.3-51-125-51-132.7c0-7.7-51-97-114.8-199.1c-257.8-413.4-712-699.2-1110.2-699.2c-74,0-76.6-5.1-76.6-109.7c0-155.7,86.8-482.4,171-635.5c148-270.5,375.2-461.9,643.1-541c262.9-76.6,515.5-33.2,763.1,130.2c436.4,290.9,640.6,949.3,472.1,1521c-89.3,308.8-319,617.6-543.6,732.5l-99.5,51L7781.8,3446.3z"/>
<path d="M1046.9,1864c-454.3-122.5-834.5-530.8-918.7-990.2C110.2,774.3,100,120.9,100-1022.4c0-1886-5.1-1822.2,137.8-2008.5c33.2-45.9,66.4-135.3,76.6-214.4c58.7-451.7,283.3-678.9,724.8-735l132.7-17.9v168.4v168.5l-125,17.8c-222,28.1-334.3,130.2-380.3,336.9l-25.5,107.2H932h290.9v1378.1c0,1360.2,0,1378.1,51,1378.1s51-17.9,51-1378.1v-1378.1l1544,5.1c1222.4,5.1,1549.1,15.3,1574.6,40.8c23,23,35.7,168.4,45.9,523.2l12.8,490l523.2,12.8c288.4,7.6,546.1,22.9,574.2,35.7c181.2,79.1,293.5,227.1,293.5,390.5c0,102.1-668.6,2335.1-791.1,2651.6c-265.4,671.2-640.6,954.5-1263.3,954.5h-265.4l-7.7-834.5l-7.7-837.1l-68.9-145.5c-94.4-204.2-268-380.3-461.9-469.6c-135.3-63.8-188.9-74-375.2-74c-194,0-237.3,10.2-387.9,84.2C1993.7-238.9,1815-4.1,1758.9,294.5c-12.8,76.6-25.5,469.6-25.5,872.8v737.6l-273.1-2.6C1304.6,1902.3,1123.4,1884.4,1046.9,1864z M4520.2-297.6c303.7-137.8,451.7-352.2,477.2-696.7l17.9-214.4h-829.4H3359l12.8,199.1c12.8,229.7,74,370,234.8,535.9C3849-218.5,4201.2-149.6,4520.2-297.6z M2805.2-928c68.9-68.9,63.8-168.4-12.8-242.5c-76.6-76.6-137.8-79.1-227.1-10.2c-79.1,61.3-89.3,183.8-23,257.8C2598.5-861.6,2738.9-861.6,2805.2-928z M2812.9-1596.6c135.3-158.2-79.1-380.3-245-250.1c-114.8,91.9-84.2,262.9,58.7,313.9C2685.3-1512.4,2761.8-1537.9,2812.9-1596.6z M2812.9-2260.2c76.6-91.9,51-206.7-61.2-262.9c-188.9-99.5-352.2,160.8-183.7,293.5C2649.6-2165.7,2744-2178.5,2812.9-2260.2z"/>
<path d="M3951.1-698.3c-91.9-48.5-252.7-211.8-252.7-255.2c0-15.3,194-25.5,497.7-25.5c303.7,0,497.7,10.2,497.7,25.5c0,45.9-160.8,206.7-257.8,257.7C4308.4-631.9,4076.2-631.9,3951.1-698.3z"/>
<path d="M2090.6,1241.3c0-196.5,7.7-357.3,20.4-357.3c10.2,0,137.8,68.9,283.3,153.1l265.4,153.1l268-153.1c148-84.2,273.1-150.6,278.2-145.5c5.1,7.6,5.1,165.9,2.5,357.3l-7.7,347.1l-262.9-150.6c-145.5-84.2-270.5-153.1-278.2-153.1c-10.2,0-132.7,68.9-278.2,153.1c-142.9,84.2-268,153.1-275.6,153.1C2098.3,1598.6,2090.6,1437.8,2090.6,1241.3z"/>
</g>
</g>
</svg>